<?xml version="1.0" encoding="utf-8"?>
<!-- Generator: Adobe Illustrator 21.0.0, SVG Export Plug-In . SVG Version: 6.00 Build 0)  -->
<svg version="1.1" xmlns="http://www.w3.org/2000/svg" xmlns:xlink="http://www.w3.org/1999/xlink" x="0px" y="0px"
	 viewBox="0 0 800 800" enable-background="new 0 0 800 800" xml:space="preserve">
<g id="Layer_2">
	<rect fill="#7A4593" width="800" height="800"/>
</g>
<g id="Layer_1">
	<g>
		<g>
			<path fill="#FFFFFF" d="M386.962,374.368L165.947,150.21C215.605,100.905,281.74,68.177,355.353,61L387,374.33L386.962,374.368z"
				/>
		</g>
		<g>
			<path fill="#FFFFFF" d="M641.504,621.155l-202.868-205.74l-0.012-0.082l-29.517-292.24c9.413-0.914,18.943-1.383,28.591-1.383
				c74.906,0,143.213,28.286,194.827,74.731C691.758,249.765,729,327.039,729,413.012C729,494.553,695.497,568.275,641.504,621.155z
				"/>
		</g>
		<g>
			<polygon fill="#FFFFFF" points="369.269,416.145 369.211,416.087 369.255,416.043 			"/>
		</g>
		<g>
			<path fill="#FFFFFF" d="M176.978,631.826C118.163,580.484,81,504.953,81,420.742c0-77.707,31.64-148.02,82.745-198.765
				l198.212,201.03L176.978,631.826z"/>
		</g>
		<path fill="#FFFFFF" d="M402.116,777c-83.093,0-159.023-30.696-217.067-81.365l218.076-246.182l0.053,0.053l229.97,233.225
			c-51.971,50.868-120.659,84.74-197.067,92.541C424.919,776.415,413.584,777,402.116,777z"/>
		<line fill="#FFFFFF" x1="107.704" y1="711.294" x2="131.133" y2="684.848"/>
	</g>
</g>
</svg>
